<svg width="113" height="26" viewBox="0 0 113 26" fill="none" xmlns="http://www.w3.org/2000/svg">
<g clip-path="url(#clip0_1014_9674)">
<path fill-rule="evenodd" clip-rule="evenodd" d="M16.7623 9.8471C16.4171 9.87493 16.0707 9.80885 15.7588 9.65563L10.0552 6.82266H15.0805C15.9022 6.82266 17.3774 7.39867 17.7551 8.34038C18.1327 9.28209 17.5146 9.78903 16.7669 9.8471H16.7623ZM0 0V4.56571H14.9526C18.0233 4.59396 20.2739 7.12244 21.0385 9.59912C21.7152 11.8263 20.5668 14.1507 18.3393 14.4332C18.8757 15.0422 19.2858 15.6402 19.4846 16.3308C20.0396 18.3429 19.1455 20.4852 17.3496 20.4837C16.5696 20.5088 16.0054 20.3189 15.1083 19.8025L3.20479 12.5372H12.1024L0 6.83993V25.0321H24.5855V0H0Z" fill="#004288"/>
<path fill-rule="evenodd" clip-rule="evenodd" d="M58.335 12.567C58.3376 12.0036 58.2329 11.445 58.0267 10.9222C57.8221 10.4042 57.5187 9.93269 57.1342 9.53474C56.7618 9.13784 56.3124 8.8241 55.8146 8.61344C55.3167 8.39705 54.7806 8.28649 54.2392 8.28855C53.6993 8.28488 53.1641 8.39162 52.6653 8.60245C52.1648 8.81738 51.7127 9.13409 51.3366 9.53317C50.9527 9.92741 50.6502 10.396 50.4471 10.9112C50.2418 11.4376 50.1372 11.9991 50.1388 12.5655C50.1369 13.1273 50.2416 13.6842 50.4471 14.2056C50.6528 14.7199 50.9549 15.1885 51.3366 15.5852C51.7112 15.9844 52.1618 16.3016 52.6609 16.5174C53.1599 16.7333 53.697 16.8434 54.2392 16.8408C54.7743 16.8452 55.3046 16.7384 55.7977 16.5269C56.2966 16.3096 56.7482 15.9938 57.1265 15.5978C57.5105 15.2006 57.8138 14.7302 58.019 14.2134C58.2253 13.6939 58.33 13.1384 58.3273 12.578L58.335 12.567ZM60.2357 12.567C60.2421 13.3578 60.0898 14.1415 59.7881 14.8702C59.4865 15.5989 59.0418 16.2572 58.4814 16.8047C57.9182 17.3628 57.2545 17.8051 56.5268 18.1074C55.802 18.4079 55.0265 18.5615 54.2438 18.5594C53.4513 18.5627 52.6658 18.4081 51.9316 18.1043C51.2069 17.8046 50.547 17.363 49.9893 16.8047C49.4305 16.2594 48.9873 15.6035 48.6867 14.8774C48.0927 13.3976 48.0927 11.7396 48.6867 10.2598C48.9869 9.52889 49.4301 8.86779 49.9893 8.3168C50.5475 7.75869 51.2086 7.31862 51.9347 7.02195C53.4128 6.42965 55.0564 6.42965 56.5345 7.02195C57.2597 7.31909 57.9202 7.75902 58.478 8.31653C59.0359 8.87404 59.4802 9.53816 59.7856 10.2708C60.0837 10.9987 60.2357 11.78 60.2326 12.5686L60.2357 12.567ZM62.0685 18.2549V6.38159L69.1918 13.3628C69.3876 13.5605 69.5834 13.7708 69.7822 13.9906C69.9811 14.2103 70.1907 14.4614 70.4096 14.7502V6.83361H72.0976V18.6991L64.8263 11.5955C64.6336 11.404 64.4455 11.2016 64.2652 10.9881C64.0815 10.7738 63.9086 10.5501 63.7472 10.3179V18.2581L62.0685 18.2549ZM73.5096 15.3466H75.1806C75.4765 16.428 76.2165 16.9334 77.3063 16.9334C78.3468 16.9334 79.0405 16.3056 79.0405 15.2242C79.0405 14.5671 78.5051 13.9806 77.4342 13.4648C77.2801 13.3895 77.1706 13.3314 77.0874 13.2984C75.8789 12.6957 75.0727 12.1511 74.6688 11.6646C74.2613 11.1641 74.0465 10.5298 74.0645 9.88003C74.0498 9.46514 74.1238 9.05193 74.2813 8.66902C74.4389 8.2861 74.6763 7.94261 74.9771 7.66231C75.5844 7.0952 76.3809 6.81269 77.3664 6.81478C78.1772 6.81478 78.8725 6.97173 79.412 7.28563C80.1519 7.73451 80.7331 8.69819 80.8271 9.39034H79.1314C78.8509 8.72173 78.2405 8.37487 77.5021 8.37487C77.0882 8.35228 76.6809 8.48771 76.3598 8.75469C76.2186 8.88297 76.1072 9.04161 76.0336 9.21914C75.96 9.39667 75.9261 9.58864 75.9344 9.78115C75.9344 10.4539 76.5551 11.0818 77.7965 11.6646C77.8905 11.7116 77.9661 11.7477 78.02 11.7713C79.1063 12.2829 79.8524 12.781 80.2583 13.2655C80.6718 13.778 80.8877 14.4263 80.8656 15.0892C80.8656 16.1492 80.5378 16.991 79.8822 17.6146C79.2255 18.2424 78.3407 18.5563 77.2246 18.5563C76.2904 18.5563 75.3856 18.2612 74.9231 17.8892C74.5325 17.5838 74.2056 17.2019 73.9618 16.7661C73.7181 16.3303 73.5622 15.8493 73.5034 15.3513L73.5096 15.3466ZM86.2224 8.41097V18.2549H84.4003V8.41097H81.419V6.84146H89.1882V8.41097H86.2224ZM90.3243 18.2549V6.83361H96.5859V8.40312H92.1479V11.652H96.5859V13.2812H92.1479V16.5771H96.5859V18.2392L90.3243 18.2549ZM98.4496 18.2549V6.83361H100.272V18.2549H98.4496ZM102.635 18.2549V6.38159L109.767 13.3628C109.963 13.5605 110.159 13.7708 110.358 13.9906C110.557 14.2103 110.766 14.4614 110.985 14.7502V6.83361H112.665V18.6991L105.394 11.5955C105.2 11.404 105.012 11.2016 104.831 10.9881C104.65 10.7731 104.477 10.5518 104.313 10.3179V18.2581L102.635 18.2549ZM34.7346 11.663C35.1539 11.645 35.5498 11.461 35.838 11.1502C36.1261 10.8395 36.2837 10.4265 36.2773 9.9992C36.2709 9.57189 36.1009 9.16401 35.8035 8.86239C35.5062 8.56077 35.1049 8.38923 34.6852 8.38429H33.2069V11.663H34.7346ZM36.7 12.2233C37.3777 12.467 37.9493 12.9463 38.3139 13.5769C38.6786 14.2076 38.813 14.949 38.6934 15.6706C38.5738 16.3922 38.208 17.0477 37.6603 17.5216C37.1126 17.9955 36.4183 18.2574 35.6996 18.2612H31.4219V6.83361H35.5223C37.0638 6.83361 38.2261 8.11276 38.2261 9.67913C38.2268 10.2028 38.0856 10.7166 37.818 11.1638C37.5503 11.6111 37.1667 11.9744 36.7092 12.2139H36.6969L36.7 12.2233ZM34.8641 16.7105H34.9612C35.4354 16.7105 35.8902 16.5187 36.2256 16.1773C36.5609 15.8359 36.7493 15.3728 36.7493 14.8899C36.7493 14.407 36.5609 13.944 36.2256 13.6025C35.8902 13.2611 35.4354 13.0693 34.9612 13.0693H33.2069V16.7121L34.8641 16.7105ZM47.5244 18.28H45.4604L42.0274 13.1179V18.2612H40.2038V6.83361H43.6676C44.4389 6.83087 45.1828 7.12513 45.75 7.6574C46.3171 8.18966 46.6657 8.92057 46.7258 9.70355C46.7859 10.4865 46.553 11.2637 46.0739 11.8792C45.5947 12.4947 44.9048 12.903 44.1424 13.0222L47.5213 18.2738L47.5244 18.28ZM43.4672 8.56007H42.0336V11.346H43.4672C43.8302 11.346 44.1784 11.1991 44.4351 10.9377C44.6918 10.6764 44.836 10.3219 44.836 9.95223C44.836 9.58259 44.6918 9.22809 44.4351 8.96671C44.1784 8.70534 43.8302 8.5585 43.4672 8.5585V8.56007Z" fill="#004288"/>
<path fill-rule="evenodd" clip-rule="evenodd" d="M34.7177 23.1204C34.7177 23.0906 34.6992 23.0074 34.6853 22.8724C34.6714 22.7375 34.6591 22.6653 34.6483 22.5931C34.6316 22.6823 34.6095 22.7704 34.582 22.8568C34.5519 22.949 34.5158 23.0392 34.4741 23.1267L33.4814 25.1875L32.4856 23.0843C32.4455 22.9964 32.4085 22.9133 32.3777 22.8316C32.3468 22.75 32.3222 22.6747 32.299 22.5931C32.299 22.6731 32.2898 22.7579 32.2805 22.8473C32.2713 22.9368 32.2513 23.0294 32.2297 23.1267L31.8212 25.0321H31.2539L32.1511 20.9985L33.2717 23.4406C33.2902 23.4783 33.3164 23.5426 33.3519 23.6337C33.3873 23.7247 33.4305 23.8346 33.4814 23.9664C33.5304 23.8222 33.587 23.6807 33.6509 23.5426C33.6725 23.4987 33.6879 23.4626 33.6987 23.4375L34.7932 20.9985L35.7181 25.0321H35.1462L34.7238 23.1204H34.7177ZM37.0083 25.0321V21.1695H39.1295V21.7047H37.6249V22.6731H39.1279V23.2256H37.6249V24.4812H39.1279V25.0446L37.0083 25.0321ZM41.2567 24.4655H41.7762C41.9919 24.4723 42.2077 24.4533 42.419 24.409C42.556 24.3722 42.6833 24.3052 42.7921 24.2128C42.936 24.0853 43.0466 23.9236 43.1142 23.742C43.2581 23.3217 43.2581 22.8642 43.1142 22.444C43.0464 22.2625 42.9358 22.1008 42.7921 21.9731C42.6789 21.8807 42.5474 21.8143 42.4067 21.7785C42.1753 21.732 41.9395 21.7125 41.7038 21.7204H41.2567V24.4655V24.4655ZM40.6401 25.0352V21.1695H41.4787C41.8618 21.1564 42.2451 21.1843 42.6225 21.2527C42.8326 21.304 43.0299 21.3992 43.2021 21.5321C43.4223 21.7034 43.5949 21.93 43.7031 22.1897C43.9296 22.7785 43.9296 23.4326 43.7031 24.0213C43.5936 24.2799 43.4212 24.5057 43.2021 24.6774C43.0336 24.8087 42.8406 24.9037 42.6348 24.9568C42.3091 25.0227 41.9771 25.0506 41.6452 25.0399H40.6463L40.6401 25.0352ZM45.3864 25.0352V21.1695H46.003V25.0399L45.3864 25.0352ZM50.7447 22.1112C50.5806 21.9664 50.3935 21.8512 50.1913 21.7706C49.9946 21.6934 49.7855 21.6545 49.5747 21.6561C49.3872 21.6485 49.2002 21.6808 49.0256 21.7508C48.8509 21.8207 48.6925 21.9269 48.5604 22.0626C48.3108 22.3506 48.1722 22.7209 48.1702 23.105C48.1682 23.4891 48.303 23.8609 48.5496 24.1516C48.6724 24.2846 48.8214 24.3896 48.987 24.4597C49.1525 24.5297 49.3307 24.5633 49.5099 24.5581C49.7297 24.5587 49.9477 24.5177 50.1528 24.4372C50.3662 24.3488 50.5637 24.2246 50.737 24.07V24.7794C50.5723 24.9001 50.3889 24.9919 50.1944 25.0509C49.7196 25.1872 49.2146 25.1674 48.7515 24.9944C48.5083 24.8995 48.2869 24.7544 48.1012 24.5684C47.9155 24.3823 47.7696 24.1592 47.6725 23.913C47.5702 23.6585 47.5178 23.386 47.5183 23.111C47.5175 22.837 47.5699 22.5655 47.6725 22.3121C47.771 22.0659 47.9173 21.8425 48.1028 21.6553C48.2882 21.4681 48.5089 21.3211 48.7515 21.2229C49.2097 21.0445 49.7132 21.0274 50.182 21.1742C50.3915 21.2448 50.5898 21.3457 50.7709 21.474L50.737 22.1097L50.7447 22.1112ZM52.3232 25.0399V21.1695H52.9398V25.0399H52.3232ZM54.6354 25.0399V21.0126L57.0479 23.3747C57.1142 23.4406 57.1805 23.5128 57.2483 23.5881C57.3161 23.6635 57.3855 23.7451 57.461 23.8455V21.1695H58.0329V25.1906L55.5665 22.783C55.5002 22.7171 55.437 22.6496 55.3754 22.5758C55.3137 22.502 55.2551 22.4283 55.1996 22.3498V25.0399H54.6354ZM60.5101 23.5191H61.5676L61.1791 22.637C61.1576 22.5805 61.1344 22.5162 61.1098 22.4424C61.0851 22.3686 61.0604 22.2854 61.0373 22.1976C61.0157 22.2823 60.9942 22.3624 60.9695 22.4346C60.9448 22.5067 60.9232 22.5742 60.9001 22.637L60.5101 23.5191V23.5191ZM62.2181 25.0399L61.7865 24.0433H60.2851L59.8442 25.0399H59.1937L61.0265 21.0126L62.864 25.0352L62.2181 25.0399ZM69.4632 24.4702H69.9827C70.1979 24.4771 70.4131 24.4581 70.6239 24.4137C70.7614 24.3769 70.8892 24.3099 70.9985 24.2175C71.1419 24.0896 71.2525 23.928 71.3207 23.7467C71.4646 23.3264 71.4646 22.8689 71.3207 22.4487C71.2523 22.2675 71.1418 22.1059 70.9985 21.9778C70.885 21.8851 70.7529 21.8187 70.6116 21.7832C70.3802 21.7366 70.1444 21.7171 69.9087 21.7251H69.457V24.4655L69.4632 24.4702ZM68.8466 25.0399V21.1695H69.6805C70.0636 21.1566 70.447 21.1845 70.8243 21.2527C71.0344 21.304 71.2318 21.3992 71.4039 21.5321C71.6241 21.703 71.7963 21.9298 71.9034 22.1897C72.1315 22.7781 72.1315 23.4329 71.9034 24.0213C71.795 24.2801 71.623 24.506 71.4039 24.6774C71.2354 24.8087 71.0424 24.9037 70.8367 24.9568C70.5109 25.0226 70.1789 25.0505 69.847 25.0399H68.8466V25.0399ZM73.5944 25.0399V21.1695H74.211V25.0399H73.5944ZM76.7036 23.5191H77.7626L77.3742 22.637C77.3511 22.5805 77.3279 22.5162 77.3033 22.4424C77.2786 22.3686 77.2555 22.2854 77.2324 22.1976C77.2092 22.2823 77.1892 22.3624 77.1645 22.4346C77.1399 22.5067 77.1183 22.5742 77.0936 22.637L76.7036 23.5191V23.5191ZM78.4116 25.0399L77.9815 24.0433H76.4709L76.0285 25.0399H75.3795L77.2185 21.0126L79.056 25.0352L78.4116 25.0399ZM82.2284 23.0529H83.7344C83.7344 23.0796 83.7344 23.1157 83.7344 23.1644C83.7344 23.2899 83.7421 23.3731 83.7421 23.4171C83.7421 23.9612 83.588 24.3839 83.2797 24.6852C82.9714 24.9866 82.5429 25.1372 81.9848 25.1372C81.7009 25.1416 81.4185 25.0943 81.1509 24.9976C80.9099 24.9062 80.6915 24.7621 80.5111 24.5754C80.33 24.3869 80.1888 24.1625 80.0965 23.9162C79.9985 23.6585 79.9493 23.3842 79.9516 23.1079C79.9507 22.8308 80.003 22.5562 80.1057 22.2996C80.2022 22.0505 80.3505 21.8256 80.5404 21.6404C80.7259 21.4545 80.9475 21.3102 81.1909 21.2166C81.4468 21.1195 81.7179 21.0706 81.991 21.0722C82.2674 21.0671 82.5416 21.1239 82.7941 21.2386C83.04 21.3576 83.2562 21.5321 83.4261 21.7487L82.9745 22.094C82.8557 21.951 82.7079 21.8358 82.5413 21.7565C82.3708 21.6805 82.1863 21.6425 82.0002 21.6451C81.8142 21.6383 81.6289 21.6707 81.4557 21.7401C81.2825 21.8095 81.1252 21.9144 80.9936 22.0485C80.8625 22.1871 80.7603 22.3513 80.693 22.5312C80.6257 22.7111 80.5948 22.903 80.6021 23.0953C80.5941 23.2903 80.6246 23.485 80.6919 23.6678C80.7591 23.8506 80.8617 24.0178 80.9936 24.1594C81.1252 24.2957 81.2832 24.4025 81.4576 24.473C81.632 24.5436 81.8189 24.5763 82.0064 24.5691C82.3041 24.5861 82.5983 24.4973 82.8388 24.318C82.9396 24.2364 83.02 24.1317 83.0735 24.0126C83.1271 23.8934 83.1523 23.763 83.1471 23.6321V23.5772H82.233V23.0529H82.2284ZM85.1958 25.0352V21.0126L87.6098 23.3778C87.6761 23.4437 87.7423 23.5159 87.8102 23.5913C87.878 23.6666 87.9474 23.7482 88.0229 23.8487V21.1695H88.5933V25.1906L86.1268 22.783C86.0596 22.7174 85.9958 22.6482 85.9357 22.5758C85.874 22.5036 85.8155 22.4283 85.76 22.3498V25.0399L85.1958 25.0352ZM93.5199 23.1079C93.5223 22.724 93.3761 22.3547 93.113 22.0798C92.9862 21.9458 92.8342 21.8394 92.6659 21.7668C92.4977 21.6942 92.3168 21.6571 92.1341 21.6576C91.9507 21.6567 91.7689 21.6937 91.5999 21.7663C91.4309 21.8388 91.278 21.9455 91.1506 22.0798C91.0179 22.2141 90.913 22.3743 90.8423 22.5507C90.773 22.729 90.738 22.9192 90.739 23.111C90.7378 23.3013 90.7729 23.49 90.8423 23.6666C90.9134 23.8428 91.0182 24.0029 91.1506 24.1375C91.3427 24.3382 91.5896 24.4755 91.8593 24.5314C92.1289 24.5874 92.4089 24.5595 92.6628 24.4514C92.8318 24.3781 92.9848 24.2714 93.113 24.1375C93.245 24.0026 93.3497 23.8426 93.4213 23.6666C93.4909 23.4905 93.5265 23.3024 93.5261 23.1126L93.5199 23.1079ZM94.1643 23.1079C94.1668 23.3756 94.1154 23.641 94.0134 23.8877C93.9113 24.1344 93.7607 24.3572 93.5708 24.5424C93.3797 24.7314 93.1547 24.8812 92.9079 24.9834C92.6636 25.0865 92.4017 25.1399 92.1372 25.1404C91.8691 25.1401 91.6037 25.0868 91.3556 24.9834C91.1097 24.8822 90.886 24.7323 90.6974 24.5424C90.5074 24.3584 90.3572 24.136 90.2565 23.8895C90.0534 23.3868 90.0534 22.8227 90.2565 22.32C90.3575 22.0717 90.5075 21.8474 90.6974 21.6608C90.8863 21.472 91.11 21.3232 91.3556 21.2229C91.6038 21.1199 91.8692 21.0666 92.1372 21.0659C92.4016 21.0672 92.6634 21.1204 92.9079 21.2229C93.1543 21.3227 93.3786 21.4716 93.5677 21.6608C93.7563 21.8499 93.9066 22.075 94.0101 22.3231C94.1125 22.5716 94.165 22.8384 94.1643 23.1079ZM91.7688 20.785L92.262 20.0662H92.8463L92.0878 20.785H91.7688ZM95.4576 24.2599L95.9493 24.0276C95.9872 24.186 96.0782 24.3259 96.2068 24.4231C96.3478 24.5176 96.5144 24.5648 96.6831 24.5581C96.8435 24.5658 97.0006 24.5095 97.1209 24.4011C97.1755 24.3473 97.2184 24.2822 97.2466 24.2103C97.2747 24.1383 97.2876 24.0611 97.2843 23.9837C97.2843 23.7556 97.0988 23.5531 96.7278 23.3763L96.6091 23.3182C96.2974 23.1857 96.0133 22.9939 95.772 22.7532C95.6311 22.5802 95.5566 22.361 95.5624 22.1363C95.5566 21.9934 95.5811 21.8508 95.6343 21.7183C95.6875 21.5859 95.7681 21.4667 95.8707 21.3689C96.0992 21.1673 96.395 21.0628 96.6969 21.0769C96.9419 21.0683 97.1847 21.1251 97.4014 21.2417C97.584 21.3448 97.7232 21.5122 97.793 21.7126L97.3105 21.9668C97.2477 21.8596 97.1618 21.7684 97.0592 21.7C96.966 21.6435 96.8594 21.6141 96.7509 21.6153C96.6078 21.6073 96.4669 21.6544 96.3563 21.7471C96.3062 21.7908 96.2664 21.8453 96.2398 21.9067C96.2131 21.9681 96.2002 22.0347 96.2021 22.1018C96.2021 22.3341 96.4169 22.5507 96.8465 22.7516L96.9235 22.7877C97.2121 22.9058 97.4742 23.082 97.6943 23.3056C97.8372 23.4819 97.9122 23.705 97.9055 23.9334C97.9132 24.0955 97.8868 24.2573 97.828 24.4081C97.7693 24.5588 97.6795 24.6951 97.5648 24.8077C97.31 25.0345 96.9779 25.1506 96.6399 25.131C96.3577 25.1435 96.079 25.0638 95.8445 24.9034C95.6338 24.7465 95.489 24.5145 95.4391 24.2536L95.4576 24.2599ZM100.623 21.7V25.0352H100.007V21.6969H98.9969V21.1695H101.628V21.7047L100.623 21.7ZM102.912 25.0352V21.1695H103.529V25.0399L102.912 25.0352ZM108.271 22.1112C108.107 21.9664 107.919 21.8512 107.717 21.7706C107.52 21.6935 107.311 21.6547 107.101 21.6561C106.913 21.6485 106.726 21.6808 106.551 21.7508C106.377 21.8207 106.218 21.9269 106.086 22.0626C105.836 22.3501 105.697 22.7207 105.695 23.105C105.693 23.4894 105.828 23.8614 106.075 24.1516C106.198 24.2846 106.347 24.3895 106.512 24.4596C106.677 24.5297 106.855 24.5632 107.034 24.5581C107.254 24.5588 107.472 24.5179 107.677 24.4372C107.891 24.3488 108.089 24.2247 108.263 24.07V24.7794C108.098 24.8996 107.915 24.9913 107.72 25.0509C107.245 25.1872 106.741 25.1674 106.277 24.9944C106.034 24.8996 105.813 24.7547 105.627 24.5686C105.441 24.3825 105.295 24.1593 105.198 23.913C105.097 23.6583 105.044 23.386 105.044 23.111C105.044 22.8371 105.096 22.5657 105.198 22.3121C105.297 22.0662 105.444 21.843 105.629 21.6559C105.815 21.4688 106.035 21.3215 106.277 21.2229C106.529 21.1227 106.798 21.0726 107.068 21.0754C107.285 21.0752 107.501 21.1085 107.708 21.1742C107.917 21.2451 108.116 21.346 108.297 21.474L108.263 22.1097L108.271 22.1112ZM110.64 23.5238H111.699L111.309 22.6292C111.286 22.5727 111.263 22.5083 111.238 22.4346C111.213 22.3608 111.19 22.2776 111.166 22.1897C111.145 22.2745 111.122 22.3545 111.099 22.4267C111.076 22.4989 111.053 22.5664 111.028 22.6292L110.638 23.5112L110.64 23.5238ZM112.348 25.0446L111.916 24.048H110.412L109.971 25.0446H109.322L111.162 21.0126L113.005 25.0321L112.348 25.0446Z" fill="#7C7B7B"/>
</g>
<defs>
<clipPath id="clip0_1014_9674">
<rect width="113" height="25.1875" fill="white"/>
</clipPath>
</defs>
</svg>
